<svg width="1030" height="255" viewBox="0 0 1030 255" fill="none" xmlns="http://www.w3.org/2000/svg">
<path d="M137.198 117.529V78.1598H91.2671V15.7563H44.3971V60.3467C44.3971 70.6587 36.896 78.1598 29.4027 78.1598H0.345703V117.529H44.4048V211.9C44.4048 235.366 63.4269 254.388 86.8928 254.388H91.2748C91.2748 254.388 108.187 255.628 120.825 249.852V208.619C120.825 208.619 91.2748 220.857 91.2748 198.253V117.529H137.205H137.198Z" fill="white"/>
<path d="M400.343 78.1077H353.612V254.236H400.343V78.1077Z" fill="white"/>
<path d="M376.937 58.4673C389.863 58.4673 400.342 47.9889 400.342 35.0631C400.342 22.1374 389.863 11.6589 376.937 11.6589C364.012 11.6589 353.533 22.1374 353.533 35.0631C353.533 47.9889 364.012 58.4673 376.937 58.4673Z" fill="white"/>
<path d="M836.765 78.1077H790.033V254.236H836.765V78.1077Z" fill="white"/>
<path d="M332.664 164.793C332.641 116.468 293.456 77.2989 245.131 77.2989C230.806 77.2989 217.283 80.7414 205.338 86.8408V0.524902H157.59V254.236H205.338V156.16C209.189 138.401 224.615 124.962 243.329 124.153C243.922 124.123 244.522 124.107 245.131 124.107C245.739 124.107 246.332 124.123 246.933 124.153C268.589 125.093 285.863 142.945 285.863 164.832V254.243H332.671V164.808L332.664 164.793Z" fill="white"/>
<path d="M1029.65 165.729C1029.62 117.403 990.44 78.2346 942.114 78.2346C893.788 78.2346 854.581 117.426 854.581 165.767V166.237V166.738C854.604 215.071 893.788 254.24 942.114 254.24C956.854 254.24 970.74 250.589 982.923 244.159V254.24H1029.65V165.737L1029.65 165.729ZM982.838 166.699C982.838 188.586 965.572 206.438 943.908 207.377C943.315 207.408 942.715 207.424 942.106 207.424C941.498 207.424 940.905 207.408 940.304 207.377C918.648 206.438 901.374 188.586 901.374 166.699V165.76C901.374 143.873 918.64 126.021 940.304 125.081C940.897 125.051 941.498 125.035 942.106 125.035C942.715 125.035 943.308 125.051 943.908 125.081C965.564 126.021 982.838 143.873 982.838 165.76V166.699Z" fill="white"/>
<path d="M595.512 164.806C595.489 116.473 556.305 77.3044 507.98 77.3044C459.654 77.3044 420.447 116.496 420.447 164.837C420.447 165.214 420.447 165.592 420.462 165.962C420.462 166.054 420.447 166.146 420.447 166.246V254.241H467.255V164.829C467.255 142.942 484.522 125.091 506.185 124.151C506.778 124.12 507.379 124.105 507.987 124.105C508.596 124.105 509.189 124.12 509.789 124.151C531.445 125.091 548.719 142.942 548.719 164.829V254.234L595.512 200.448V164.806Z" fill="white"/>
<path d="M819.856 12.5674L792.039 44.6201C795.697 52.7757 803.884 58.467 813.403 58.467C826.325 58.467 836.807 47.9855 836.807 35.0628C836.807 24.3734 829.645 15.3706 819.856 12.5674Z" fill="white"/>
<path d="M615.005 248.621L763.209 77.8379H701.73L615.005 178.047V248.621Z" fill="#0040FF"/>
<path d="M615.005 248.621L763.209 77.8379H701.73L615.005 178.047V248.621Z" fill="url(#paint0_radial_17_706)"/>
<path d="M615.005 248.621L763.209 77.8379H701.73L615.005 178.047V248.621Z" fill="url(#paint1_radial_17_706)"/>
<path d="M615.005 248.621L763.209 77.8379H701.73L615.005 178.047V248.621Z" fill="url(#paint2_radial_17_706)"/>
<path d="M615.005 248.621L763.209 77.8379H701.73L615.005 178.047V248.621Z" fill="url(#paint3_radial_17_706)"/>
<path d="M615.005 248.621L763.209 77.8379H701.73L615.005 178.047V248.621Z" fill="url(#paint4_radial_17_706)" fill-opacity="0.5"/>
<path fill-rule="evenodd" clip-rule="evenodd" d="M710.49 138.591L681.148 172.407L725.215 254.241H775.189L710.49 138.591Z" fill="white"/>
<path d="M661.336 0.5H615.013V178.045L661.336 124.521V0.5Z" fill="white"/>
<path d="M615.013 254.241H661.821L661.945 194.541L615.013 248.619V254.241Z" fill="white"/>
<defs>
<radialGradient id="paint0_radial_17_706" cx="0" cy="0" r="1" gradientTransform="matrix(-51.6454 117.615 -232.622 -144.307 685.899 98.9441)" gradientUnits="userSpaceOnUse">
<stop stop-color="#001963"/>
<stop offset="1" stop-color="#0040FF" stop-opacity="0"/>
</radialGradient>
<radialGradient id="paint1_radial_17_706" cx="0" cy="0" r="1" gradientTransform="matrix(131.35 -24.6508 48.755 367.016 631.949 187.88)" gradientUnits="userSpaceOnUse">
<stop stop-color="#2C60FF"/>
<stop offset="1" stop-color="#0040FF" stop-opacity="0"/>
</radialGradient>
<radialGradient id="paint2_radial_17_706" cx="0" cy="0" r="1" gradientTransform="matrix(-103.833 -128.732 92.7483 -256.589 718.838 206.57)" gradientUnits="userSpaceOnUse">
<stop stop-color="#90ABFF"/>
<stop offset="1" stop-color="#0040FF" stop-opacity="0"/>
</radialGradient>
<radialGradient id="paint3_radial_17_706" cx="0" cy="0" r="1" gradientTransform="matrix(27.246 48.9794 -42.777 76.6137 615.005 77.8379)" gradientUnits="userSpaceOnUse">
<stop stop-color="#90ABFF"/>
<stop offset="1" stop-color="#0040FF" stop-opacity="0"/>
</radialGradient>
<radialGradient id="paint4_radial_17_706" cx="0" cy="0" r="1" gradientTransform="matrix(-111.017 -126.799 106.679 -131.954 763.299 248.621)" gradientUnits="userSpaceOnUse">
<stop stop-color="#0040FF" stop-opacity="0"/>
<stop offset="1" stop-color="#0040FF"/>
</radialGradient>
</defs>
</svg>
